# MagicaVoxel @ Ephtracy

# group
g poste

# material
mtllib poste.mtl
usemtl palette

# normals
vn -1 0 0
vn 1 0 0
vn 0 0 1
vn 0 0 -1
vn 0 -1 0
vn 0 1 0

# texcoords
vt 0.0214844 0.5
vt 0.978516 0.5

# verts
v 10 48 -22
v 10 48 -25
v 10 49 -22
v 10 49 -25
v 10 50 -22
v 10 50 -25
v 18 0 -22
v 18 0 -25
v 18 49 -22
v 18 49 -25
v 12 48 -22
v 12 48 -25
v 12 49 -22
v 12 49 -25
v 20 0 -22
v 20 0 -25
v 20 50 -22
v 20 50 -25
v 10 48 -22
v 10 49 -22
v 10 50 -22
v 12 48 -22
v 12 49 -22
v 18 0 -22
v 18 49 -22
v 20 0 -22
v 20 50 -22
v 10 48 -25
v 10 49 -25
v 10 50 -25
v 12 48 -25
v 12 49 -25
v 18 0 -25
v 18 49 -25
v 20 0 -25
v 20 50 -25
v 18 0 -22
v 20 0 -22
v 18 0 -25
v 20 0 -25
v 10 48 -22
v 12 48 -22
v 10 48 -25
v 12 48 -25
v 12 49 -22
v 18 49 -22
v 12 49 -25
v 18 49 -25
v 10 50 -22
v 20 50 -22
v 10 50 -25
v 20 50 -25

# faces
f 3/1/1 2/1/1 1/1/1
f 4/1/1 2/1/1 3/1/1
f 5/2/1 4/2/1 3/2/1
f 6/2/1 4/2/1 5/2/1
f 9/2/1 8/2/1 7/2/1
f 10/2/1 8/2/1 9/2/1
f 11/1/2 12/1/2 13/1/2
f 13/1/2 12/1/2 14/1/2
f 15/2/2 16/2/2 17/2/2
f 17/2/2 16/2/2 18/2/2
f 22/1/3 20/1/3 19/1/3
f 23/2/3 21/2/3 20/2/3
f 23/1/3 20/1/3 22/1/3
f 25/2/3 21/2/3 23/2/3
f 26/2/3 25/2/3 24/2/3
f 27/2/3 21/2/3 25/2/3
f 27/2/3 25/2/3 26/2/3
f 28/1/4 29/1/4 31/1/4
f 29/2/4 30/2/4 32/2/4
f 31/1/4 29/1/4 32/1/4
f 32/2/4 30/2/4 34/2/4
f 33/2/4 34/2/4 35/2/4
f 34/2/4 30/2/4 36/2/4
f 35/2/4 34/2/4 36/2/4
f 39/2/5 38/2/5 37/2/5
f 40/2/5 38/2/5 39/2/5
f 43/1/5 42/1/5 41/1/5
f 44/1/5 42/1/5 43/1/5
f 47/2/5 46/2/5 45/2/5
f 48/2/5 46/2/5 47/2/5
f 49/2/6 50/2/6 51/2/6
f 51/2/6 50/2/6 52/2/6
