# MagicaVoxel @ Ephtracy

# group
g Pedaço chão1

# material
mtllib Pedaço chão1.mtl
usemtl palette

# normals
vn -1 0 0
vn 1 0 0
vn 0 0 1
vn 0 0 -1
vn 0 -1 0
vn 0 1 0

# texcoords
vt 0.0175781 0.5
vt 0.0214844 0.5
vt 0.978516 0.5
vt 0.994141 0.5

# verts
v -20 0 20
v -20 0 17
v -20 0 -17
v -20 0 -20
v -20 1 20
v -20 1 17
v -20 1 -17
v -20 1 -20
v 20 0 20
v 20 0 17
v 20 0 -17
v 20 0 -20
v 20 1 20
v 20 1 17
v 20 1 -17
v 20 1 -20
v -20 0 20
v -20 1 20
v 20 0 20
v 20 1 20
v -20 0 -20
v -20 1 -20
v 20 0 -20
v 20 1 -20
v -20 0 20
v 20 0 20
v -20 0 17
v 20 0 17
v -18 0 4
v -13 0 4
v -12 0 4
v -3 0 4
v -2 0 4
v 3 0 4
v 18 0 4
v -3 0 -1
v -2 0 -1
v -18 0 -4
v -13 0 -4
v -12 0 -4
v -2 0 -4
v 3 0 -4
v 18 0 -4
v -20 0 -17
v 20 0 -17
v -20 0 -20
v 20 0 -20
v -20 1 20
v 20 1 20
v -20 1 17
v 20 1 17
v -18 1 4
v -13 1 4
v -12 1 4
v -3 1 4
v -2 1 4
v 3 1 4
v 18 1 4
v -3 1 -1
v -2 1 -1
v -18 1 -4
v -13 1 -4
v -12 1 -4
v -2 1 -4
v 3 1 -4
v 18 1 -4
v -20 1 -17
v 20 1 -17
v -20 1 -20
v 20 1 -20

# faces
f 5/4/1 2/4/1 1/4/1
f 6/3/1 3/3/1 2/3/1
f 6/4/1 2/4/1 5/4/1
f 7/4/1 4/4/1 3/4/1
f 7/3/1 3/3/1 6/3/1
f 8/4/1 4/4/1 7/4/1
f 9/4/2 10/4/2 13/4/2
f 10/3/2 11/3/2 14/3/2
f 13/4/2 10/4/2 14/4/2
f 11/4/2 12/4/2 15/4/2
f 14/3/2 11/3/2 15/3/2
f 15/4/2 12/4/2 16/4/2
f 19/4/3 18/4/3 17/4/3
f 20/4/3 18/4/3 19/4/3
f 21/4/4 22/4/4 23/4/4
f 23/4/4 22/4/4 24/4/4
f 27/4/5 26/4/5 25/4/5
f 28/4/5 26/4/5 27/4/5
f 29/3/5 28/3/5 27/3/5
f 30/3/5 28/3/5 29/3/5
f 31/3/5 28/3/5 30/3/5
f 32/3/5 28/3/5 31/3/5
f 33/3/5 28/3/5 32/3/5
f 34/3/5 28/3/5 33/3/5
f 35/3/5 28/3/5 34/3/5
f 36/2/5 32/2/5 31/2/5
f 36/1/5 33/1/5 32/1/5
f 37/3/5 34/3/5 33/3/5
f 37/1/5 33/1/5 36/1/5
f 38/3/5 29/3/5 27/3/5
f 38/2/5 30/2/5 29/2/5
f 39/1/5 31/1/5 30/1/5
f 39/2/5 30/2/5 38/2/5
f 40/2/5 37/2/5 36/2/5
f 40/1/5 31/1/5 39/1/5
f 40/2/5 36/2/5 31/2/5
f 41/3/5 34/3/5 37/3/5
f 41/2/5 37/2/5 40/2/5
f 42/2/5 35/2/5 34/2/5
f 42/3/5 34/3/5 41/3/5
f 43/3/5 28/3/5 35/3/5
f 43/2/5 35/2/5 42/2/5
f 44/3/5 40/3/5 39/3/5
f 44/3/5 39/3/5 38/3/5
f 44/3/5 43/3/5 42/3/5
f 44/3/5 41/3/5 40/3/5
f 44/3/5 42/3/5 41/3/5
f 44/3/5 38/3/5 27/3/5
f 45/3/5 28/3/5 43/3/5
f 45/3/5 43/3/5 44/3/5
f 46/4/5 45/4/5 44/4/5
f 47/4/5 45/4/5 46/4/5
f 48/4/6 49/4/6 50/4/6
f 50/4/6 49/4/6 51/4/6
f 50/3/6 51/3/6 52/3/6
f 52/3/6 51/3/6 53/3/6
f 53/3/6 51/3/6 54/3/6
f 54/3/6 51/3/6 55/3/6
f 55/3/6 51/3/6 56/3/6
f 56/3/6 51/3/6 57/3/6
f 57/3/6 51/3/6 58/3/6
f 54/2/6 55/2/6 59/2/6
f 55/1/6 56/1/6 59/1/6
f 56/3/6 57/3/6 60/3/6
f 59/1/6 56/1/6 60/1/6
f 50/3/6 52/3/6 61/3/6
f 52/2/6 53/2/6 61/2/6
f 53/1/6 54/1/6 62/1/6
f 61/2/6 53/2/6 62/2/6
f 59/2/6 60/2/6 63/2/6
f 62/1/6 54/1/6 63/1/6
f 54/2/6 59/2/6 63/2/6
f 60/3/6 57/3/6 64/3/6
f 63/2/6 60/2/6 64/2/6
f 57/2/6 58/2/6 65/2/6
f 64/3/6 57/3/6 65/3/6
f 58/3/6 51/3/6 66/3/6
f 65/2/6 58/2/6 66/2/6
f 62/3/6 63/3/6 67/3/6
f 61/3/6 62/3/6 67/3/6
f 65/3/6 66/3/6 67/3/6
f 63/3/6 64/3/6 67/3/6
f 64/3/6 65/3/6 67/3/6
f 50/3/6 61/3/6 67/3/6
f 66/3/6 51/3/6 68/3/6
f 67/3/6 66/3/6 68/3/6
f 67/4/6 68/4/6 69/4/6
f 69/4/6 68/4/6 70/4/6
